<?xml version="1.0" encoding="iso-8859-1"?>
<!-- Generator: Adobe Illustrator 18.0.0, SVG Export Plug-In . SVG Version: 6.00 Build 0)  -->
<!DOCTYPE svg PUBLIC "-//W3C//DTD SVG 1.1//EN" "http://www.w3.org/Graphics/SVG/1.1/DTD/svg11.dtd">
<svg version="1.1" id="Capa_1" xmlns="http://www.w3.org/2000/svg" xmlns:xlink="http://www.w3.org/1999/xlink" x="0px" y="0px"
	 viewBox="0 0 51.123 51.123" style="enable-background:new 0 0 51.123 51.123;" xml:space="preserve">
<path d="M45.123,0H6C2.691,0,0,2.692,0,6v39.123c0,3.309,2.691,6,6,6h39.123c3.309,0,6-2.691,6-6V6C51.123,2.692,48.432,0,45.123,0z
	 M49.123,45.123c0,2.206-1.794,4-4,4H6c-2.206,0-4-1.794-4-4V6c0-2.206,1.794-4,4-4h39.123c2.206,0,4,1.794,4,4V45.123z
	 M36.395,21.03c0,5.489-4.248,10.046-9.833,10.75v3.647c0,0.552-0.448,1-1,1s-1-0.448-1-1v-4.564c0-0.535,0.42-0.975,0.954-0.999
	c5.062-0.231,8.879-4.029,8.879-8.834c0-4.871-3.963-8.833-8.833-8.833s-8.833,3.963-8.833,8.833c0,0.552-0.448,1-1,1s-1-0.448-1-1
	c0-5.974,4.86-10.833,10.833-10.833S36.395,15.056,36.395,21.03z M26.562,39.052v0.875c0,0.552-0.448,1-1,1s-1-0.448-1-1v-0.875
	c0-0.552,0.448-1,1-1S26.562,38.5,26.562,39.052z"/>
<g>
</g>
<g>
</g>
<g>
</g>
<g>
</g>
<g>
</g>
<g>
</g>
<g>
</g>
<g>
</g>
<g>
</g>
<g>
</g>
<g>
</g>
<g>
</g>
<g>
</g>
<g>
</g>
<g>
</g>
</svg>
